<?xml version="1.0" encoding="utf-8"?>
<!-- Generator: Adobe Illustrator 20.1.0, SVG Export Plug-In . SVG Version: 6.00 Build 0)  -->
<!DOCTYPE svg PUBLIC "-//W3C//DTD SVG 1.1//EN" "http://www.w3.org/Graphics/SVG/1.1/DTD/svg11.dtd">
<svg version="1.1" id="Layer_1" xmlns="http://www.w3.org/2000/svg" xmlns:xlink="http://www.w3.org/1999/xlink" x="0px" y="0px"
	 viewBox="0 0 229.8 68.6" style="enable-background:new 0 0 229.8 68.6;" xml:space="preserve">
<style type="text/css">
	.st0{fill:#FFFFFF;}
</style>
<g>
	<path class="st0" d="M22.6,1.2c0-0.6,0.4-1,1-1h14.3c5.6,0,8.6,3,8.6,8.6v14.5c0,5.5-3,8.6-8.6,8.6h-7.1v15c0,0.6-0.3,1-1,1h-6.2
		c-0.6,0-1-0.4-1-1V1.2z M35.9,24.1c1.6,0,2.4-0.9,2.4-2.4V10.5c0-1.5-0.8-2.4-2.4-2.4h-5.2v15.9H35.9z"/>
	<path class="st0" d="M55.3,8.8c0-5.6,3-8.6,8.6-8.6h6.7c5.6,0,8.6,3,8.6,8.6v30.5c0,5.6-3,8.6-8.6,8.6h-6.7c-5.6,0-8.6-3-8.6-8.6
		V8.8z M69,40.2c1.5,0,2.4-0.8,2.4-2.4V10.3c0-1.5-0.8-2.4-2.4-2.4h-3.5c-1.5,0-2.4,0.8-2.4,2.4v27.5c0,1.6,0.8,2.4,2.4,2.4H69z"/>
	<path class="st0" d="M95.2,0.3c0.6,0,1,0.4,1,1v45.7c0,0.6-0.4,1-1,1H89c-0.7,0-1-0.4-1-1V1.2c0-0.6,0.3-1,1-1H95.2z"/>
	<path class="st0" d="M129.5,0.3c0.6,0,1,0.4,1,1v45.7c0,0.6-0.4,1-1,1h-5.9c-0.5,0-0.9-0.2-1.1-0.8l-9.1-25.4h-0.3v25.2
		c0,0.6-0.3,1-1,1H106c-0.6,0-1-0.4-1-1V1.2c0-0.6,0.4-1,1-1h5.9c0.5,0,0.9,0.2,1.1,0.8l9,25.3h0.4V1.2c0-0.6,0.3-1,1-1H129.5z"/>
	<path class="st0" d="M161,0.3c0.7,0,1,0.4,1,1v5.9c0,0.6-0.3,1-1,1h-6.9v38.8c0,0.7-0.3,1-1,1H147c-0.6,0-1-0.3-1-1V8.1h-6.9
		c-0.6,0-1-0.4-1-1V1.2c0-0.6,0.4-1,1-1H161z"/>
	<g>
		<path class="st0" d="M5.1,68.4v-8.1h1.4v8.1H5.1z"/>
		<path class="st0" d="M22.3,68.4L18,62.6v5.8h-1.4v-8.1h1.5l4.2,5.6v-5.6h1.4v8.1H22.3z"/>
		<path class="st0" d="M35.6,68.4v-6.9h-2.5v-1.3h6.4v1.3h-2.5v6.9H35.6z"/>
		<path class="st0" d="M49,68.4v-8.1h5.6v1.3h-4.2v2.1h4.1v1.3h-4.1v2.3h4.2v1.3H49z"/>
		<path class="st0" d="M69,68.4l-1.8-3h-1.4v3h-1.4v-8.1h3.6c1.6,0,2.7,1,2.7,2.6c0,1.4-1,2.2-1.9,2.4l2,3.2H69z M69.2,62.8
			c0-0.8-0.6-1.3-1.4-1.3h-2v2.6h2C68.6,64.1,69.2,63.6,69.2,62.8z"/>
		<path class="st0" d="M86.1,68.4l-0.6-1.6h-3.7l-0.6,1.6h-1.6l3.2-8.1h1.8l3.2,8.1H86.1z M83.6,61.7l-1.5,3.9h2.9L83.6,61.7z"/>
		<path class="st0" d="M96.1,64.3c0-2.5,1.9-4.2,4.3-4.2c1.6,0,2.7,0.8,3.3,1.8l-1.2,0.6c-0.4-0.7-1.2-1.2-2.1-1.2
			c-1.6,0-2.8,1.2-2.8,2.9c0,1.7,1.2,2.9,2.8,2.9c0.9,0,1.7-0.5,2.1-1.2l1.2,0.6c-0.6,1-1.6,1.8-3.3,1.8
			C97.9,68.6,96.1,66.8,96.1,64.3z"/>
		<path class="st0" d="M115,68.4v-6.9h-2.5v-1.3h6.4v1.3h-2.5v6.9H115z"/>
		<path class="st0" d="M128.4,68.4v-8.1h1.4v8.1H128.4z"/>
		<path class="st0" d="M142.2,68.4l-3.2-8.1h1.6l2.5,6.6l2.5-6.6h1.6l-3.2,8.1H142.2z"/>
		<path class="st0" d="M156.4,68.4v-8.1h5.6v1.3h-4.2v2.1h4.1v1.3h-4.1v2.3h4.2v1.3H156.4z"/>
	</g>
	<path class="st0" d="M182.7,46.1c-0.9,0.5-1.2,1.1-1.2,2.1v7.4c0,1.1,0.6,1.7,1.7,1.7h9.2v-3.5c0-1.1,0.6-1.7,1.7-1.7h8.2
		c1.1,0,1.7,0.6,1.7,1.7v13.1c0,1.1-0.6,1.7-1.7,1.7h-30.8c-1.1,0-1.7-0.6-1.7-1.7V41.6c0-1.6,0.6-2.3,2.2-3.2l20.3-10.9V14.9
		c0-2.2-1.3-3.4-3.4-3.4h-4.1c-2.3,0-3.4,1.2-3.4,3.4v6.7c0,0.9-0.5,1.4-1.4,1.4h-8.9c-0.9,0-1.4-0.5-1.4-1.4v-9.1
		c0-8,4.3-12.3,12.3-12.3h9.6c7.9,0,12.3,4.3,12.3,12.3v20.2c0,1.6-0.7,2.3-2.3,3.2L182.7,46.1z"/>
	<path class="st0" d="M228.4,0c0.9,0,1.4,0.5,1.4,1.4V67c0,0.9-0.5,1.4-1.4,1.4h-8.9c-0.9,0-1.4-0.5-1.4-1.4V13l-5.3,0.7
		c-1.1,0.2-1.8-0.4-1.8-1.5V3.9c0-1.1,0.5-1.7,1.6-1.8L228.4,0z"/>
	<path class="st0" d="M12,0.4c0.6,0,0.9,0.4,0.9,0.9v45.5c0,0.6-0.4,0.9-0.9,0.9H5.9c-0.7,0-0.9-0.4-0.9-0.9V9.4L1.2,9.9
		C0.5,10,0,9.6,0,8.8V3.1c0-0.8,0.4-1.2,1.1-1.2L12,0.4z"/>
</g>
</svg>
